<svg width="160" height="31" viewBox="0 0 160 31" fill="none" xmlns="http://www.w3.org/2000/svg">
<g id="Logo">
<path id="Vector" fillRule="evenodd" clipRule="evenodd" d="M119.119 0.14917H113.836V6.08832H119.119V0.14917ZM36.5551 0.180736H31.807V29.85H36.5551V0.180736ZM102.485 8.36943C97.5312 8.36943 93.6779 11.48 93.3557 15.7535L93.3203 16.2218H97.8073L97.8339 15.8148C97.9488 14.0576 99.7371 12.3954 102.385 12.3954C103.883 12.3954 104.991 12.7949 105.719 13.4366C106.441 14.073 106.835 14.9876 106.835 16.122C106.835 16.405 106.753 16.5773 106.639 16.6835C106.52 16.7943 106.298 16.8948 105.897 16.8948H101.682C99.2229 16.8948 97.153 17.5158 95.6884 18.6844C94.2129 19.8617 93.3879 21.5671 93.3879 23.6404C93.3879 25.5696 94.121 27.2176 95.4186 28.3791C96.7123 29.5369 98.5357 30.1847 100.679 30.1847C103.384 30.1847 106.196 29.0607 107.5 27.2524C107.5 27.7524 107.5 29.2524 107.5 29.7524H111.583V25.2188V16.3233C111.583 13.9553 110.672 11.9532 109.058 10.5485C107.45 9.14873 105.176 8.36943 102.485 8.36943ZM101.448 26.1923C100.404 26.1923 99.5628 25.9031 98.9914 25.4378C98.4273 24.9785 98.1025 24.3305 98.1025 23.5397C98.1025 22.5958 98.479 21.8506 99.1369 21.331C99.8054 20.8031 100.797 20.4845 102.05 20.4845H106.835V20.5189C106.835 22.3173 106.323 23.727 105.422 24.684C104.525 25.6377 103.193 26.1923 101.448 26.1923ZM78.8028 17.1342H62.2473V20.8246H78.8028V17.1342ZM118.852 8.67105H114.104V29.8149H118.852V8.67105ZM128.985 12.3289C129.786 12.3289 130.696 12.5469 131.426 13.0189C132.145 13.484 132.685 14.19 132.802 15.1994L132.847 15.5847H137.337L137.313 15.1263C137.206 13.0908 136.312 11.3811 134.835 10.1867C133.364 8.99661 131.339 8.33652 128.985 8.33652C126.801 8.33652 124.901 8.94533 123.537 10.0435C122.166 11.1475 121.36 12.7311 121.36 14.6122C121.36 16.8883 122.122 18.3387 123.321 19.271C124.487 20.1784 126.016 20.5511 127.454 20.8097C127.793 20.8708 128.133 20.9263 128.464 20.9803L128.465 20.9805L128.53 20.9912C128.884 21.0489 129.227 21.1053 129.557 21.1669C130.222 21.2905 130.816 21.4308 131.314 21.6295C131.81 21.8278 132.183 22.0735 132.433 22.391C132.678 22.7013 132.833 23.1156 132.833 23.7082C132.833 24.8408 131.674 26.025 129.453 26.025C128.221 26.025 127.255 25.7083 126.572 25.1597C125.895 24.6154 125.458 23.8111 125.335 22.7518L125.291 22.3665H120.796L120.825 22.8293C120.966 25.069 121.876 26.9123 123.396 28.1913C124.912 29.4661 127 30.1516 129.453 30.1516C131.896 30.1516 133.901 29.5393 135.304 28.4019C136.717 27.2563 137.481 25.6095 137.481 23.641C137.481 21.2241 136.722 19.675 135.52 18.6787C134.344 17.7042 132.803 17.3105 131.35 17.0611C130.911 16.9858 130.46 16.9209 130.027 16.8585C129.75 16.8186 129.48 16.7797 129.225 16.7398C128.553 16.6346 127.952 16.5183 127.449 16.3469C126.945 16.1754 126.573 15.9603 126.328 15.6811C126.091 15.4126 125.94 15.0495 125.94 14.5115C125.94 13.8674 126.221 13.3394 126.728 12.9598C127.245 12.5726 128.016 12.3289 128.985 12.3289ZM149.188 25.9578C150.615 25.9578 151.746 25.6438 152.577 25.0907C153.4 24.5429 153.957 23.7414 154.218 22.7015L154.3 22.3329H159L158.914 22.8411C158.169 27.258 154.3 30.118 149.154 30.118C142.622 30.118 138.585 24.9827 138.585 19.1098C138.585 16.1859 139.491 13.4927 141.233 11.5246C142.98 9.54996 145.543 8.33652 148.786 8.33652C152.023 8.33652 154.543 9.49518 156.251 11.355C157.954 13.2093 158.82 15.7282 158.82 18.405C158.82 18.9556 158.786 19.6065 158.751 19.9884L158.715 20.3844H143.348C143.792 23.7607 146.082 25.9578 149.188 25.9578ZM148.786 12.3625C150.368 12.3625 151.611 12.845 152.484 13.6597C153.262 14.3865 153.775 15.4058 153.956 16.6605H143.499C143.82 15.2938 144.403 14.269 145.197 13.567C146.085 12.7823 147.28 12.3625 148.786 12.3625ZM49.3011 26.0281C47.4918 26.0281 45.9966 25.3521 44.9508 24.206C43.9022 23.0566 43.2794 21.4049 43.2794 19.415C43.2794 17.4251 43.9022 15.7734 44.9508 14.624C45.9966 13.4779 47.4918 12.8019 49.3011 12.8019C51.1102 12.8019 52.5964 13.4776 53.6336 14.6228C54.674 15.7717 55.2893 17.4236 55.2893 19.415C55.2893 21.4049 54.6665 23.057 53.6215 24.2066C52.5794 25.3529 51.0927 26.0281 49.3011 26.0281ZM49.3011 8.50742C43.0072 8.50742 38.4311 13.0993 38.4311 19.415C38.4311 25.7306 43.0072 30.3226 49.3011 30.3226C55.5969 30.3226 60.1377 25.7289 60.1377 19.415C60.1377 13.1021 55.6313 8.50742 49.3011 8.50742ZM92.6845 8.67105H80.5108V29.8485H85.292V13.3348H92.6845V8.67105ZM28.9988 15.4213H14.3831V20.3871H22.5125C21.1248 23.6822 18.2199 25.7591 14.4826 25.7591C9.39358 25.7591 5.18285 21.3462 5.18285 15.8232C5.18285 10.3002 9.39358 5.8872 14.4826 5.8872C16.5346 5.8872 18.2144 6.3805 19.578 7.35839C20.944 8.33805 22.0287 9.83006 22.8429 11.8889L22.8498 11.9063L23.045 12.298H28.351L28.1467 11.4775L28.1435 11.4666C27.4442 9.17311 26.2246 6.62693 24.07 4.65194C21.9062 2.66858 18.8311 1.29083 14.4835 1.29063C6.48091 1.25653 0 7.79776 0 15.8232C0 23.8507 6.48273 30.3557 14.4826 30.3557C17.9436 30.3557 21.2417 28.9322 23.4697 26.4175C24.0214 25.7997 24.48 25.1091 24.8696 24.3795L25.321 29.2358V29.8521H28.9988V15.4213Z" fill="#CAFF87"/>
</g>
</svg>
